HIERARCHY
ROOT root
{
	OFFSET 0.000000 0.000000 0.000000
	CHANNELS 6 Xposition Yposition Zposition Zrotation Yrotation Xrotation
	JOINT lhip
	{
		OFFSET 0.058581 -0.082280 -0.017664
		CHANNELS 3 Zrotation Yrotation Xrotation
		JOINT lknee
		{
			OFFSET 0.043451 -0.386469 0.008037
			CHANNELS 3 Zrotation Yrotation Xrotation
			JOINT lankle
			{
				OFFSET -0.014790 -0.426874 -0.037428
				CHANNELS 3 Zrotation Yrotation Xrotation
				JOINT ltoe
				{
					OFFSET 0.041054 -0.060286 0.122042
					CHANNELS 3 Zrotation Yrotation Xrotation
					End Site
					{
						OFFSET 0.000000 0.000000 0.000000
					}
				}
			}
		}
	}
	JOINT rhip
	{
		OFFSET -0.060310 -0.090513 -0.013543
		CHANNELS 3 Zrotation Yrotation Xrotation
		JOINT rknee
		{
			OFFSET -0.043257 -0.383688 -0.004843
			CHANNELS 3 Zrotation Yrotation Xrotation
			JOINT rankle
			{
				OFFSET 0.019056 -0.420046 -0.034562
				CHANNELS 3 Zrotation Yrotation Xrotation
				JOINT rtoe
				{
					OFFSET -0.034840 -0.062106 0.130323
					CHANNELS 3 Zrotation Yrotation Xrotation
					End Site
					{
						OFFSET 0.000000 0.000000 0.000000
					}
				}
			}
		}
	}
	JOINT lowerback
	{
		OFFSET 0.004439 0.124404 -0.038385
		CHANNELS 3 Zrotation Yrotation Xrotation
		JOINT upperback
		{
			OFFSET 0.004488 0.137956 0.026820
			CHANNELS 3 Zrotation Yrotation Xrotation
			JOINT chest
			{
				OFFSET -0.002265 0.056032 0.002855
				CHANNELS 3 Zrotation Yrotation Xrotation
				JOINT lowerneck
				{
					OFFSET -0.013390 0.211636 -0.033468
					CHANNELS 3 Zrotation Yrotation Xrotation
					JOINT upperneck
					{
						OFFSET 0.010113 0.088937 0.050410
						CHANNELS 3 Zrotation Yrotation Xrotation
						End Site
						{
							OFFSET 0.000000 0.000000 0.000000
						}
					}
				}
				JOINT lclavicle
				{
					OFFSET 0.071702 0.114000 -0.018898
					CHANNELS 3 Zrotation Yrotation Xrotation
					JOINT lshoulder
					{
						OFFSET 0.122921 0.045205 -0.019046
						CHANNELS 3 Zrotation Yrotation Xrotation
						JOINT lelbow
						{
							OFFSET 0.255332 -0.015649 -0.022946
							CHANNELS 3 Zrotation Yrotation Xrotation
							JOINT lwrist
							{
								OFFSET 0.265709 0.012698 -0.007375
								CHANNELS 3 Zrotation Yrotation Xrotation
								End Site
								{
									OFFSET 0.000000 0.000000 0.000000
								}
							}
						}
					}
				}
				JOINT rclavicle
				{
					OFFSET -0.082954 0.112472 -0.023707
					CHANNELS 3 Zrotation Yrotation Xrotation
					JOINT rshoulder
					{
						OFFSET -0.113228 0.046853 -0.008472
						CHANNELS 3 Zrotation Yrotation Xrotation
						JOINT relbow
						{
							OFFSET -0.260127 -0.014369 -0.031269
							CHANNELS 3 Zrotation Yrotation Xrotation
							JOINT rwrist
							{
								OFFSET -0.269108 0.006794 -0.006027
								CHANNELS 3 Zrotation Yrotation Xrotation
								End Site
								{
									OFFSET 0.000000 0.000000 0.000000
								}
							}
						}
					}
				}
			}
		}
	}
}
MOTION
Frames: 17
Frame Time: 0.033333
-0.625716 0.151958 0.989308 158.343050 1.528781 85.644739 0.638094 3.916971 8.972834 -1.670382 -6.732719 4.718961 2.637516 10.186702 -14.133408 0.000000 -0.000000 0.000000 3.230991 -1.622082 2.566688 2.064042 -1.848222 13.394166 2.960927 -4.346360 -13.583933 0.000000 -0.000000 0.000000 -0.688100 -4.528753 9.765591 3.984161 -5.524478 -1.920807 0.985820 -3.951291 1.429471 1.300122 -8.463352 7.933566 -4.328215 -11.805121 15.525820 -25.755278 6.483346 4.581291 -59.338235 -7.835287 8.747925 9.801886 -30.607543 3.574332 -5.108562 -4.555946 -9.543337 26.569963 -0.578103 -0.509058 58.141943 4.396473 12.604131 -13.377699 18.595907 -6.277161 5.777310 2.202772 -6.851401 
-0.624688 0.151133 0.988374 159.299044 1.363728 85.279623 0.477979 3.535222 8.363276 -1.728664 -7.044197 6.360356 2.932384 10.355160 -14.514263 0.000000 -0.000000 0.000000 3.191013 -1.803369 2.445377 2.060551 -2.173300 14.404036 2.784974 -4.964463 -14.116901 0.000000 -0.000000 0.000000 -0.685673 -4.384929 9.982487 3.908946 -5.139100 -1.537903 1.121970 -3.471627 2.075448 1.515530 -3.461825 9.118070 -4.320501 -6.845332 17.078777 -25.594018 6.282524 4.209970 -59.172877 -7.843785 8.464547 10.490459 -29.689889 3.718128 -4.897893 -4.363554 -8.986685 26.686110 -1.072914 -0.240062 57.801391 5.426437 12.793793 -13.355755 18.920937 -6.428268 5.346701 2.446579 -7.463899 
-0.623807 0.149940 0.987630 160.293766 1.084404 84.561934 0.121863 3.113903 7.728223 -1.782400 -7.408880 8.791011 2.874163 10.416435 -15.010377 0.000000 -0.000000 0.000000 2.970972 -2.272046 2.781904 1.938580 -2.525667 15.199736 2.869835 -5.090589 -14.686144 0.000000 -0.000000 0.000000 -0.683957 -3.913507 10.724532 3.708618 -4.890945 -0.929894 1.314144 -3.233424 2.692183 1.463088 0.344388 9.991730 -4.417693 -2.875674 17.796333 -25.397591 6.361750 3.706996 -58.975243 -7.806112 8.099407 10.664014 -29.484276 3.392869 -4.161783 -4.435365 -9.389557 26.583024 -1.233908 -0.301711 57.683162 6.367823 12.866480 -13.289038 19.375784 -6.886269 5.050748 2.786872 -7.979334 
-0.622745 0.148879 0.986767 161.559970 0.888271 83.718197 -0.395013 2.280923 6.363044 -1.820578 -7.373438 12.890105 2.931940 10.823656 -15.686361 0.000000 -0.000000 0.000000 2.723572 -2.963010 3.426383 1.816611 -2.979103 15.788985 3.137485 -4.982073 -15.164662 0.000000 -0.000000 0.000000 -0.111005 -3.203939 11.667855 3.181451 -4.518243 -0.136415 1.079844 -2.946197 3.746461 1.640944 3.355491 10.538178 -4.170560 0.446534 18.002756 -25.291869 6.553344 3.070377 -58.787266 -7.788120 7.672710 11.524603 -30.158148 2.504583 -3.984017 -4.105406 -9.513319 26.878931 -1.000516 -0.012617 57.228599 7.204532 13.074698 -13.198769 20.590473 -7.258742 4.728619 3.006439 -7.947564 
-0.622997 0.147582 0.986402 162.396976 0.659092 83.415665 -0.975926 1.566132 4.844449 -1.878199 -7.348704 16.127023 2.750897 11.189026 -15.469152 0.000000 -0.000000 0.000000 2.357426 -3.168337 3.549139 1.931096 -3.580473 16.070618 3.030869 -5.113826 -15.400047 0.000000 -0.000000 0.000000 0.540326 -2.726795 12.575290 2.793140 -4.140603 -0.140642 0.782711 -2.829885 4.114533 1.312883 4.116435 10.648208 -3.991595 1.414620 18.036765 -25.285955 6.592675 2.829238 -58.566785 -7.701784 7.371039 11.565241 -30.587476 1.856311 -4.109315 -4.270164 -10.707180 26.591228 -0.773341 0.219163 57.379824 7.218700 13.293977 -13.353257 21.472281 -7.115011 4.361548 3.061639 -8.117830 
-0.621865 0.145719 0.986325 163.445067 0.593652 83.097285 -1.266547 0.690580 2.227550 -2.247942 -7.236732 21.364395 2.162102 10.901644 -14.711261 0.000000 -0.000000 0.000000 2.511914 -3.340583 3.901390 1.713704 -3.976608 15.929107 2.922419 -5.583487 -15.534358 0.000000 -0.000000 0.000000 1.281982 -1.947523 13.721283 2.393974 -3.533757 -0.046521 0.566100 -2.362678 4.398598 1.189970 4.123541 10.846011 -3.512771 1.998087 17.921451 -25.413457 6.271331 2.895803 -58.231771 -7.643076 7.088243 11.991055 -31.086695 0.791503 -3.665889 -4.089811 -11.253661 26.509176 -0.327459 0.596218 57.112964 7.006008 13.212563 -13.202614 22.336688 -7.118164 4.473471 3.121048 -8.258429 
-0.620618 0.144402 0.985883 164.772451 0.423977 82.928117 -1.299362 -0.327735 -1.431192 -3.215252 -6.681814 28.013263 1.397622 10.117649 -12.954034 0.000000 -0.000000 0.000000 2.393297 -4.119766 4.323039 1.645089 -4.103003 15.497728 2.149295 -5.706487 -15.410972 0.000000 -0.000000 0.000000 1.939936 -1.064921 14.567548 2.135082 -3.318999 0.056043 0.333169 -2.075500 4.537861 0.832508 3.867572 11.344822 -3.024285 2.462921 17.741533 -25.543932 6.189658 2.748086 -58.234047 -7.387635 6.865775 12.191039 -31.216062 0.635700 -3.365787 -4.035974 -11.407674 26.155378 0.252311 1.061896 56.891000 6.952809 13.166358 -12.578142 22.656754 -6.452511 4.143080 3.225418 -8.065345 
-0.619811 0.144596 0.985700 165.649525 0.163186 82.759776 -1.033674 -1.447035 -5.092251 -4.470715 -5.619323 34.450285 0.074936 8.649675 -9.648574 0.000000 -0.000000 0.000000 2.067762 -4.756604 5.063148 1.820000 -4.046113 14.379930 1.226622 -5.766706 -15.447698 0.000000 -0.000000 0.000000 2.629077 -0.031388 15.244239 1.944313 -3.003460 0.187325 0.039239 -1.529112 4.564828 0.529887 3.214199 11.676979 -2.766388 2.205913 17.481792 -25.853119 6.249424 2.593094 -58.210640 -7.025359 6.945425 11.804818 -31.322042 0.843594 -3.813158 -4.231330 -12.175605 25.891532 0.580061 1.786089 56.323269 7.110184 13.014143 -11.983507 22.760614 -5.663765 4.283097 3.089321 -8.047430 
-0.618642 0.144674 0.985633 166.301008 -0.151402 82.500044 -0.311845 -2.559623 -8.887578 -6.091757 -3.865414 40.604710 -2.103122 7.031835 -5.047712 0.000000 -0.000000 0.000000 1.643883 -4.800745 5.898642 2.264460 -4.326474 13.321273 0.229233 -5.868320 -15.479456 0.000000 -0.000000 0.000000 3.189293 1.264847 16.165485 1.755503 -2.371827 0.094154 -0.160993 -1.225243 4.430349 0.303323 2.390603 12.096131 -2.393370 1.465171 17.428408 -26.274439 6.175465 2.773086 -58.290785 -6.849314 7.173074 12.072526 -30.856983 0.678510 -2.916511 -4.078812 -12.182988 25.761825 0.915219 2.111364 55.783577 7.385304 12.851978 -11.487209 21.546617 -5.068545 3.892498 3.023441 -7.784063 
-0.615799 0.147227 0.985052 167.503227 -0.607900 81.974404 0.477097 -3.819112 -13.600566 -7.220254 -0.986036 48.103911 -2.233727 6.417545 -1.056234 0.000000 -0.000000 0.000000 0.911189 -5.634956 7.429527 2.698817 -4.593271 12.001606 -0.946865 -6.184213 -15.485831 0.000000 -0.000000 0.000000 3.032739 2.405213 16.830896 1.901589 -2.263449 0.245614 0.062846 -0.563740 4.587432 -0.313266 1.361354 12.485139 -2.186327 1.057150 17.292560 -26.677466 6.468482 2.770973 -58.700031 -6.455253 7.166471 11.673454 -29.972154 1.966622 -4.465059 -3.827340 -12.213691 25.379251 1.524620 2.429772 55.116679 8.198529 12.480776 -10.995485 19.633713 -4.588560 4.553401 2.645372 -7.282060 
-0.614434 0.150203 0.984629 168.579533 -0.652883 81.323667 1.229358 -3.981361 -17.655316 -6.784487 2.169115 55.082207 -0.364483 6.960484 -2.152021 0.000000 -0.000000 0.000000 0.664740 -6.617133 9.014001 2.868319 -4.247096 10.862406 -1.386982 -6.262876 -15.304720 0.000000 -0.000000 0.000000 3.415803 3.200525 17.771412 1.943145 -2.391570 -0.039546 0.067716 -0.334365 4.993353 -0.569806 0.326644 12.254369 -2.189313 1.057731 17.738380 -26.854609 6.625532 2.765360 -59.257781 -5.983033 6.952584 11.132328 -29.045690 3.157291 -4.931470 -3.574487 -12.333984 25.470969 2.036984 2.500114 54.097128 9.026445 12.013351 -10.728289 18.151999 -4.710794 4.294896 2.555018 -6.590263 
-0.614593 0.152570 0.985171 169.066288 -1.106882 81.226507 1.685003 -4.111023 -22.519810 -5.958326 5.611087 62.278465 1.698351 7.938863 -5.816856 0.000000 -0.000000 0.000000 -0.047342 -6.911057 9.226055 3.072891 -4.188770 10.945241 -1.178290 -6.229279 -15.529525 0.000000 -0.000000 0.000000 3.448134 4.291138 18.731721 1.915777 -2.076081 -0.954731 0.077302 -0.217210 5.272208 -0.681621 -0.465779 12.122398 -2.178878 0.885943 18.111915 -27.235514 6.627521 2.934882 -59.674186 -5.613298 6.676074 10.887953 -27.417866 3.579605 -5.329313 -3.540622 -12.010107 25.457222 2.030863 2.269893 53.272039 9.564860 11.545915 -10.827157 17.367059 -5.203665 4.470191 2.134473 -6.864909 
-0.612914 0.157798 0.985136 169.790577 -1.190837 80.640278 2.694974 -3.819044 -27.050326 -5.249172 8.448378 69.380128 2.703397 7.853032 -9.009711 0.000000 -0.000000 0.000000 -0.176791 -7.836014 10.333321 2.705345 -4.016069 10.627023 -1.101877 -6.056933 -15.867648 0.000000 -0.000000 0.000000 3.544479 5.144960 19.798567 1.964712 -2.222198 -1.538025 0.169912 -0.041667 5.663230 -0.630471 -1.277823 12.034449 -2.090781 0.617441 18.047596 -27.255707 6.702722 2.891618 -60.206371 -4.958424 6.276229 10.097785 -25.889097 5.093224 -5.604848 -3.158282 -11.604956 25.260913 2.197069 2.343576 53.197065 10.446562 10.696165 -11.142614 16.418243 -5.781767 3.570188 2.122985 -6.839668 
-0.612667 0.161932 0.985755 169.918827 -1.541716 80.391752 3.696702 -3.640416 -32.008341 -5.341694 11.030799 75.536190 2.937852 7.274392 -12.480280 0.000000 -0.000000 0.000000 -0.642174 -8.334591 10.675296 2.428447 -3.857114 10.892915 -0.786824 -5.552443 -16.086877 0.000000 -0.000000 0.000000 3.574142 6.148755 20.944477 1.860410 -2.218793 -2.224161 0.061788 0.231810 5.879629 -0.332963 -1.502361 11.615284 -1.787053 0.347975 18.321005 -27.313480 6.505286 2.886637 -60.719076 -4.374735 6.063312 9.871968 -24.125435 5.836571 -5.835610 -3.011070 -11.125600 25.165825 2.268691 2.470838 53.000672 11.081939 10.171158 -11.311162 17.072417 -6.368332 2.882995 2.307472 -7.529063 
-0.612256 0.168356 0.985677 169.716029 -2.165822 79.841084 4.508063 -3.169730 -36.225040 -5.675454 13.198795 80.148460 3.266834 6.472294 -14.900206 0.000000 -0.000000 0.000000 -1.594940 -8.431719 11.670954 2.372136 -3.471019 10.789204 -0.662258 -5.613671 -16.077796 0.000000 -0.000000 0.000000 3.469814 7.085433 21.998405 1.524784 -2.164178 -2.431933 -0.117537 0.443828 6.210326 -0.268962 -1.655044 11.501691 -1.557543 0.340309 18.082902 -27.238486 6.345324 3.022747 -61.080453 -3.871209 5.773640 9.621140 -22.970910 6.762651 -6.147413 -3.051699 -11.529209 24.873250 2.571651 2.468976 53.019324 11.627419 9.991898 -11.378433 18.035014 -6.167512 2.616140 2.108917 -8.406894 
-0.610514 0.176529 0.986044 169.981090 -2.195175 78.966349 5.739191 -2.556976 -39.774275 -6.082184 14.419277 83.169748 3.381619 5.567182 -16.365368 0.000000 -0.000000 0.000000 -2.099240 -9.713703 13.307485 2.206456 -3.003658 10.470472 -0.565997 -5.105582 -16.096453 0.000000 -0.000000 0.000000 3.680629 7.858790 23.113120 1.465190 -2.466380 -2.478769 -0.103187 0.537061 6.326537 -0.250819 -1.936649 11.936192 -1.363491 0.192353 18.024525 -27.347464 6.127382 3.092424 -61.232236 -3.244474 5.367749 9.365374 -22.003548 7.708582 -6.653962 -2.969168 -11.271959 24.262273 2.865619 2.676503 53.266256 11.976017 9.688846 -11.635759 19.395313 -5.677072 2.697491 2.297862 -8.529783 
-0.610046 0.184609 0.986064 169.868355 -2.681990 78.667149 6.586554 -1.869245 -43.346536 -6.362785 15.488907 84.261563 3.308414 4.797181 -17.190103 0.000000 -0.000000 0.000000 -2.809836 -10.028605 14.225520 2.140368 -2.239627 10.335505 -0.762887 -5.108890 -16.493924 0.000000 -0.000000 0.000000 3.578557 8.397463 23.602940 1.240451 -2.607948 -2.547444 -0.354161 0.750717 6.644385 -0.297266 -1.954242 12.215670 -1.414390 0.182251 18.104408 -27.542862 6.108769 3.065655 -60.966482 -2.759719 5.345549 8.496502 -21.395460 8.603061 -6.062311 -2.956443 -11.270163 24.307177 3.071849 2.785784 52.907936 12.545677 9.841219 -11.461686 20.814654 -5.079236 2.168387 2.582694 -8.401051 
